HIERARCHY
ROOT Hips
{
  OFFSET -125.086 92.215 135.881
  CHANNELS 6 Xposition Yposition Zposition Zrotation Xrotation Yrotation
  JOINT LeftUpLeg
  {
    OFFSET 8.64259 1.95398 -2.38835
    CHANNELS 3 Zrotation Xrotation Yrotation
    JOINT LeftLeg
    {
      OFFSET 43.7702 0 0
      CHANNELS 3 Zrotation Xrotation Yrotation
      JOINT LeftFoot
      {
        OFFSET 40.6238 0 0
        CHANNELS 3 Zrotation Xrotation Yrotation
        JOINT LeftToeBase
        {
          OFFSET 12.7242 0 0
          CHANNELS 3 Zrotation Xrotation Yrotation
          End Site
          {
            OFFSET 0 0 0
          }
        }
      }
    }
  }
  JOINT RightUpLeg
  {
    OFFSET -8.2249 1.95398 -2.59336
    CHANNELS 3 Zrotation Xrotation Yrotation
    JOINT RightLeg
    {
      OFFSET 43.5653 0 0
      CHANNELS 3 Zrotation Xrotation Yrotation
      JOINT RightFoot
      {
        OFFSET 40.6238 0 0
        CHANNELS 3 Zrotation Xrotation Yrotation
        JOINT RightToeBase
        {
          OFFSET 12.7242 0 0
          CHANNELS 3 Zrotation Xrotation Yrotation
          End Site
          {
            OFFSET 0 0 0
          }
        }
      }
    }
  }
  JOINT Spine
  {
    OFFSET 0.165834 0.87714 6.61349
    CHANNELS 3 Zrotation Xrotation Yrotation
    JOINT Spine1
    {
      OFFSET 7.38963 1.71661e-005 0
      CHANNELS 3 Zrotation Xrotation Yrotation
      JOINT Spine2
      {
        OFFSET 11.9445 1.14441e-005 0
        CHANNELS 3 Zrotation Xrotation Yrotation
        JOINT Spine3
        {
          OFFSET 14.7254 4.19617e-005 0
          CHANNELS 3 Zrotation Xrotation Yrotation
          JOINT Spine4
          {
            OFFSET 10.9679 0 0
            CHANNELS 3 Zrotation Xrotation Yrotation
            JOINT RightShoulder
            {
              OFFSET 2.46616 -1.6653 3.69651
              CHANNELS 3 Zrotation Xrotation Yrotation
              JOINT RightArm
              {
                OFFSET 13.0012 0 0
                CHANNELS 3 Zrotation Xrotation Yrotation
                JOINT RightForeArm
                {
                  OFFSET 28.7848 1.52588e-005 0
                  CHANNELS 3 Zrotation Xrotation Yrotation
                  JOINT RightHand
                  {
                    OFFSET 26.5688 1.52588e-005 0
                    CHANNELS 3 Zrotation Xrotation Yrotation
                    End Site
                    {
                      OFFSET 0 0 0
                    }
                  }
                }
              }
            }
            JOINT LeftShoulder
            {
              OFFSET 2.38034 -1.29275 -3.7523
              CHANNELS 3 Zrotation Xrotation Yrotation
              JOINT LeftArm
              {
                OFFSET 16.3182 6.10352e-005 0
                CHANNELS 3 Zrotation Xrotation Yrotation
                JOINT LeftForeArm
                {
                  OFFSET 27.0901 0 0
                  CHANNELS 3 Zrotation Xrotation Yrotation
                  JOINT LeftHand
                  {
                    OFFSET 24.5451 1.52588e-005 0
                    CHANNELS 3 Zrotation Xrotation Yrotation
                    End Site
                    {
                      OFFSET 0 0 0
                    }
                  }
                }
              }
            }
            JOINT Neck
            {
              OFFSET 5.0226 -0.0266342 0
              CHANNELS 3 Zrotation Xrotation Yrotation
              JOINT Head
              {
                OFFSET 6.69363 2.86102e-005 0
                CHANNELS 3 Zrotation Xrotation Yrotation
                End Site
                {
                  OFFSET 0 0 0
                }
              }
            }
          }
        }
      }
    }
  }
}
MOTION
Frames:	17
Frame Time:	0.0416667
-2.74101 12.8698 -52.5772 168.277 -4.38425 169.632 -154.006 74.2462 49.4047 -135.313 5.95858 4.10927 42.0248 -4.38868 -7.7735 23.0524 -0.672222 6.98497 168.807 66.1405 60.6379 -104.031 -29.0163 -2.16038 43.3125 7.53274 14.7133 27.9738 0.919496 -7.42726 -0.871811 14.6313 -90.9342 -2.41337 -2.0584 -1.97398 -14.084 -2.14327 -1.8815 -36.6139 -1.37018 -2.50115 -16.6013 -1.37019 -2.50115 97.4302 -20.941 -93.5301 74.9239 -15.1936 30.613 -14.5818 -35.2418 -50.7145 -71.4604 -8.69329 7.08309 -82.2981 -36.0485 88.7767 -19.3396 13.6402 -12.8515 5.66605 37.5656 -39.7725 -5.00644 0.11532 -12.3212 -45.3404 2.44219 -13.9691 -10.925 -1.09428 -2.74722 
-2.7003 12.7654 -52.6165 169.193 -4.86361 170.831 -151.11 73.6187 48.0113 -137.737 4.05581 4.15144 43.1366 -3.42211 -6.06908 21.4109 -0.763431 7.7197 177.94 69.208 52.0807 -112.851 -30.5048 -3.71417 42.1706 8.03061 14.3409 29.6218 0.561172 -7.5339 -0.803767 14.8682 -90.9792 -2.8867 -1.93356 -2.06225 -14.5577 -2.02244 -1.97517 -37.0852 -1.22462 -2.54779 -17.0726 -1.22461 -2.54779 96.9315 -19.4536 -95.0794 74.8408 -15.7628 25.3161 -5.41147 -37.3294 -40.0017 -76.1937 -8.5027 5.82867 -82.8746 -33.1367 87.3546 -19.8227 15.6821 -16.2906 -1.07216 37.8574 -32.8497 -4.68211 0.0831712 -12.9697 -46.2111 2.4905 -13.2837 -9.90603 -0.999101 -2.75993 
-2.47175 12.914 -52.5325 169.452 -6.14579 172.755 -156.06 73.1548 53.3305 -138.535 1.95999 3.94219 47.2128 -0.782337 -2.92398 24.8794 -0.777705 7.42852 -175.103 69.8838 45.9643 -118.604 -32.3882 -4.38604 42.294 8.06575 13.8831 26.6992 1.45356 -9.35617 -0.714649 14.9524 -90.9979 -3.05338 -1.76119 -2.08695 -14.7247 -1.85131 -2.00745 -37.2505 -1.05278 -2.51956 -17.2379 -1.05279 -2.51955 96.4801 -20.2711 -95.975 72.651 -14.7819 20.2676 2.01808 -40.431 -28.8501 -78.9045 -8.62715 5.42545 -83.3159 -30.7074 86.1555 -23.2172 14.3452 -15.6632 -0.546208 41.5765 -30.2086 -8.68982 0.459301 -14.2612 -46.3597 2.49734 -13.0956 -9.66274 -0.971788 -2.55332 
-2.55797 13.3042 -52.2386 169.949 -8.25889 174.763 -165.83 73.5552 63.8776 -138.177 1.23257 3.62241 48.0951 0.280686 0.783924 29.2773 -1.04645 9.03923 -171.576 70.6514 45.0344 -122.746 -32.9311 -4.6695 44.8006 7.05839 11.9342 23.4383 2.0425 -8.03698 -0.543592 15.0502 -91.0533 -3.24653 -1.43808 -2.16869 -14.9184 -1.53211 -2.10334 -37.4411 -0.720048 -2.50043 -17.4285 -0.720044 -2.50043 96.4151 -22.829 -95.4919 68.6179 -13.9465 16.3011 7.90602 -43.2263 -19.6085 -83.1128 -8.81119 4.87618 -83.3835 -29.8326 85.8821 -24.6464 15.2354 -14.9654 -2.24283 41.7107 -28.4969 -4.62089 0.0811618 -13.268 -44.025 2.09165 -11.7855 -9.64099 -0.731055 -3.40261 
-2.52744 14.2048 -51.5292 168.501 -12.1401 176.353 -173.775 76.7331 72.2933 -138.647 4.39737 3.32819 45.9414 -1.08407 2.98803 32.6842 -1.12988 9.76454 -171.371 73.6738 45.862 -127.825 -30.5352 -4.78568 48.1012 5.59258 9.84393 19.995 2.23457 -4.67456 -0.554691 15.1027 -91.3138 -3.35801 -1.54757 -2.68389 -15.0307 -1.66415 -2.61324 -37.5457 -0.66983 -3.0246 -17.533 -0.669825 -3.02461 96.618 -27.2524 -94.0935 61.9224 -13.6361 12.2295 13.3585 -45.3176 -11.5303 -78.9636 -7.97019 4.66139 -83.6362 -30.0037 85.4139 -25.2231 16.3401 -14.7187 -4.39655 41.53 -27.0185 -3.24597 -0.0266756 -12.6993 -42.3577 1.34349 -9.95217 -7.3654 -0.958761 -2.60533 
-2.26631 15.5447 -49.3363 167.574 -16.0499 174.446 -158.544 78.2181 57.9273 -140.848 2.75488 3.53765 48.4542 0.74894 3.94326 34.4113 -1.17181 10.4451 -150.947 73.3485 26.3805 -137.612 -34.1501 -4.57749 54.1131 2.86996 6.06889 21.1829 2.42661 -7.23911 -0.82236 14.9729 -91.1709 -3.10245 -2.03371 -2.44697 -14.7739 -2.1394 -2.35513 -37.2961 -1.20464 -2.94469 -17.2834 -1.20464 -2.9447 97.5282 -31.9971 -91.416 55.6525 -11.6857 8.5446 18.4425 -46.7785 -2.93442 -81.8828 -6.77061 2.76572 -83.9581 -30.7378 84.9135 -26.9144 14.9797 -13.8399 -2.68071 48.9745 -26.4757 0.743444 -0.302991 -12.1696 -44.3093 1.03558 -9.00494 -5.86328 -1.26598 -2.43961 
-1.25052 16.8871 -46.3196 166.809 -20.709 170.825 -128.295 74.7992 27.6734 -143.574 -2.49773 4.25605 52.5445 4.14364 7.05523 37.4746 -1.15583 10.7141 -129.903 67.475 5.32503 -144.794 -38.097 -3.59306 57.316 1.0916 1.46299 23.284 1.88947 -6.81244 -1.29157 14.4778 -90.886 -2.11498 -2.87959 -1.93637 -13.784 -2.96201 -1.80771 -36.3236 -2.16471 -2.71218 -16.3109 -2.16471 -2.71217 98.6256 -34.847 -88.927 51.0569 -8.20534 7.31939 18.9505 -54.8199 0.263854 -82.2398 -8.0238 4.17441 -83.2982 -32.6967 86.4951 -28.6854 13.373 -12.8636 -3.91793 54.0258 -22.587 2.03016 -0.354066 -11.1994 -47.5502 0.963694 -7.49636 -4.39697 -1.21843 -1.72141 
0.193618 17.405 -43.0981 164.254 -24.4321 166.682 -111.131 67.7688 7.91798 -146.336 -8.5859 5.17971 55.9171 7.32581 8.80268 39.6222 -1.16532 11.6099 -122.913 60.6508 -4.12423 -146.542 -40.49 -2.78767 58.4744 0.340963 -0.504275 25.6909 0.910841 -3.27019 -1.92327 14.0867 -90.771 -1.34357 -4.10483 -1.7671 -13.009 -4.1786 -1.58449 -35.5725 -3.38404 -2.91978 -15.5598 -3.38404 -2.91977 99.8861 -37.1008 -86.3846 45.7637 -6.22338 7.40364 17.854 -59.9376 0.0186847 -85.8326 -7.78482 3.33229 -83.1261 -33.0288 86.8658 -33.1804 10.9323 -10.0869 -3.16796 60.1429 -20.363 4.28908 -0.430411 -10.2766 -48.2677 0.436026 -5.63749 -3.56409 -1.24581 -0.201022 
1.31309 17.8836 -40.6412 159.605 -27.3166 162.167 -105.813 61.3884 -1.14596 -148.09 -11.3505 5.8717 57.9438 9.18138 11.0774 41.559 -1.1267 12.302 -122.712 55.0246 -8.15439 -148.184 -44.2823 -2.2315 60.4355 -1.09142 -3.48649 30.9102 -0.0656626 -3.4926 -2.47875 14.123 -90.8326 -1.43643 -5.2315 -1.96838 -13.098 -5.31303 -1.73569 -35.6851 -4.39804 -3.45153 -15.6724 -4.39804 -3.45154 102.307 -44.5926 -81.9346 35.2696 -5.20289 2.94214 17.9022 -64.5049 0.0216342 -83.4176 -8.57832 4.59206 -83.193 -32.4449 86.6603 -38.2361 8.36313 -8.01434 0.198305 63.9898 -20.161 5.23276 -0.515334 -10.6629 -47.6408 -0.324414 -4.11207 -0.2205 -1.45189 2.10601 
1.97147 18.9443 -39.3263 155.349 -30.8451 156.601 -103.74 56.7236 -5.58437 -147.981 -13.0261 6.49228 59.3993 10.2565 12.0941 45.3635 -1.03612 12.6213 -122.77 51.4412 -11.5162 -149.523 -46.8142 -1.92384 65.7416 -4.60191 -5.57374 32.9082 -0.502095 -2.31469 -2.68817 14.4196 -91.0083 -2.05002 -5.70174 -2.38482 -13.7102 -5.80114 -2.13092 -36.3019 -4.72153 -3.9902 -16.2893 -4.72153 -3.9902 105.472 -52.8974 -77.1906 25.7044 -2.34078 -4.27529 17.5167 -69.7307 0.0269991 -77.0434 -11.3679 9.28709 -82.4619 -35.1807 88.3791 -40.236 3.96847 -10.1961 12.1588 73.3058 -27.1334 8.97392 -0.462112 -8.10903 -44.644 -2.93066 1.54683 4.6172 -2.67185 -0.3888 
2.6267 20.8144 -39.1478 151.206 -34.0426 152.226 -105.713 55.8878 -4.94496 -146.942 -10.6611 6.5728 60.067 11.3565 15.7236 47.5812 -0.933877 13.609 -126.432 51.2437 -11.2338 -149.388 -47.9409 -2.18619 70.5133 -8.39047 -7.63447 35.3367 -0.919106 -2.67292 -2.3165 14.8981 -91.2467 -3.00592 -5.02418 -2.87315 -14.6696 -5.14577 -2.64892 -37.2323 -3.92871 -4.25044 -17.2196 -3.92871 -4.25043 104.08 -52.3555 -79.2689 29.1135 -7.40955 -5.50886 18.811 -69.7079 -0.0242574 -60.6485 -9.98454 12.0289 -81.9742 -38.1035 89.5661 -39.5003 0.0492558 -16.0005 31.6657 83.3439 -42.0264 11.0674 -0.306161 -6.18491 -40.4244 -4.74377 3.74624 9.61926 -4.6139 -4.42404 
2.85549 23.8888 -39.7876 150.137 -32.134 160.589 -128.29 65.7264 19.5762 -146.367 -8.71983 4.88416 64.6436 14.9355 16.6003 47.4125 -1.05004 11.1875 -157.385 60.6033 20.3085 -146.793 -41.655 -3.86991 73.1479 -12.0166 -10.601 37.8072 -1.33814 -1.16428 -0.987738 16.1874 -92.1573 -5.58068 -2.64791 -4.46978 -17.2565 -2.84183 -4.34919 -39.7342 -1.18442 -5.05748 -19.7215 -1.18441 -5.05747 102.414 -48.9673 -81.7732 27.9046 -27.9108 -3.07029 8.82268 -48.6951 -19.7687 -30.5701 -3.37817 5.7978 -81.194 -40.8808 91.1664 -37.0778 -3.10949 -21.6678 59.4922 88.6296 -66.6506 11.8232 -0.0225537 -3.8444 -34.9752 -5.33877 3.48499 12.2298 -5.92939 -7.45682 
0.273745 27.4193 -39.1138 152.039 -39.5979 160.152 -136.165 71.356 33.8088 -145.338 0.264572 4.13506 67.9455 17.5596 19.8782 47.6426 -1.17283 8.82016 -168.596 68.027 36.9742 -146.235 -35.0913 -4.49478 75.7175 -16.1636 -14.9071 42.6107 -2.2136 -1.90806 -0.497293 16.3429 -91.4054 -5.83779 -1.42979 -2.88921 -17.5109 -1.55553 -2.82355 -40.0223 -0.495788 -3.18503 -20.0096 -0.495784 -3.18503 102.053 -45.5357 -82.3489 16.7985 -40.0074 -6.48647 -14.4635 -39.592 -48.8289 -14.8218 -0.608992 0.0438565 -79.8417 -45.0038 93.6249 -34.419 -7.13914 -28.1549 177.36 85.4102 179.61 14.195 0.00107841 -3.72853 -29.4112 -5.03158 3.02166 14.4982 -6.3394 -9.6046 
-1.7032 30.3378 -37.2229 150.536 -45.584 155.036 -139.701 72.8578 39.6634 -144.154 4.44933 4.02938 70.5115 19.1919 20.0423 50.1516 -1.03786 10.8919 -174.072 69.6577 43.9681 -146.171 -30.0378 -4.56976 82.4504 -21.5834 -14.2511 42.0258 -2.12016 -2.94725 -0.728744 16.1982 -90.4774 -5.53357 -1.59454 -1.11431 -17.2039 -1.64203 -1.04305 -39.7401 -1.18597 -1.54199 -19.7275 -1.18596 -1.542 101.621 -41.1378 -83.1144 11.4203 -36.9086 -7.9246 -14.3933 -25.6575 -52.9771 -15.4353 -0.595325 -0.724599 -80.0796 -46.5192 93.3203 -33.9964 -11.9938 -31.7765 -177.384 81.7299 179.973 12.2413 0.0894062 -2.96658 -24.1341 -3.35448 -0.574122 14.0904 -4.63437 -7.61193 
-2.88383 32.2289 -34.4528 146.754 -50.3282 148.729 -137.969 75.0128 38.4335 -144.537 5.33495 4.01187 72.8029 18.9764 15.9785 52.0267 -0.843533 12.8011 -177.439 69.9445 45.9542 -146.745 -27.4102 -4.51217 88.3675 -26.5046 -14.1577 41.506 -1.9657 0.0427103 -1.01023 15.8448 -89.7159 -4.81695 -1.90838 0.335636 -16.4866 -1.89177 0.419321 -39.0328 -1.92102 -0.253659 -19.0201 -1.92101 -0.253661 101.669 -37.4174 -83.0732 10.8788 -22.1761 -10.4531 -11.7162 -18.0707 -51.1617 -12.1149 -0.17242 -3.62303 -80.514 -46.2085 92.6154 -34.8431 -17.2055 -33.4797 -171.343 78.5426 179.935 10.1919 -0.100797 -4.46215 -20.2788 -2.472 -3.6775 12.963 -3.73064 -7.48763 
-4.02869 33.8396 -31.739 146.014 -51.3236 146.028 -150.538 76.7915 51.9867 -145.351 7.69486 3.61057 72.9266 16.4206 10.4897 54.9439 -0.599343 14.3729 -174.622 66.1221 41.1107 -147.535 -28.8642 -4.37488 93.7289 -25.7392 -6.43151 36.8557 -1.188 -4.16908 -1.0125 15.7527 -89.3958 -4.62851 -1.80748 0.967561 -16.2986 -1.76315 1.04618 -38.8431 -2.01469 0.37943 -18.8304 -2.01469 0.379423 101.668 -34.2373 -83.116 9.99 -7.87819 -14.232 -8.96751 -12.3128 -49.8382 -13.0159 -0.1386 -4.20236 -80.9322 -45.3792 91.9002 -32.9496 -19.0174 -32.114 -171.533 77.053 179.944 5.10673 -0.196109 -5.79273 -17.878 -3.23142 -3.13626 12.2202 -4.53911 -8.88759 
-4.82541 35.6366 -29.3945 142.637 -53.7976 141.863 -155.876 78.219 56.8792 -144.881 5.73878 3.49846 72.4753 14.7657 5.48723 55.0878 -0.608029 14.162 -175.67 67.8944 40.4659 -147.89 -31.3386 -4.66119 86.9842 -22.9314 -10.5063 47.6936 -2.81699 0.257776 -1.08242 15.2875 -89.4023 -3.6973 -1.94702 0.966855 -15.3672 -1.90257 1.05162 -37.9135 -2.14755 0.336766 -17.9008 -2.14755 0.336773 101.433 -31.4227 -83.631 11.8508 5.28859 -20.8437 -11.2517 -10.9572 -51.1004 -12.0509 -0.134268 -4.0099 -81.3909 -43.3323 91.0137 -29.8087 -16.9483 -29.1652 -176.053 79.2689 179.664 -3.91212 -0.00325803 -9.14236 -16.8294 -3.60735 -1.69741 11.0185 -4.81941 -9.19397 
